<svg version="1.2" xmlns="http://www.w3.org/2000/svg" viewBox="0 0 588 567" width="588" height="567">
	<title>tender (1)-svg</title>
	<style>
		.s0 { fill: #feaa26 } 
		.s1 { fill: #fdaa28 } 
		.s2 { fill: #f99e00 } 
		.s3 { fill: #b3713c } 
		.s4 { fill: #cb3a33 } 
		.s5 { fill: #0a7070 } 
		.s6 { fill: #efeeee } 
		.s7 { fill: #0d626a } 
		.s8 { fill: #e0e0df } 
		.s9 { fill: #f0f0f0 } 
		.s10 { fill: #020100 } 
		.s11 { fill: #f89c02 } 
		.s12 { fill: #e0bea3 } 
		.s13 { fill: #ad5343 } 
		.s14 { fill: #6e3e22 } 
		.s15 { fill: #0f6e72 } 
		.s16 { fill: #5d351f } 
		.s17 { fill: #7e502a } 
		.s18 { fill: #7a8543 } 
		.s19 { fill: #cf8c09 } 
		.s20 { fill: #e1e1e0 } 
		.s21 { fill: #0a555d } 
		.s22 { fill: #a9513f } 
		.s23 { fill: #0c606b } 
		.s24 { fill: #fdc691 } 
		.s25 { fill: #c68a54 } 
		.s26 { fill: #0c0804 } 
		.s27 { fill: #e6cbb7 } 
		.s28 { fill: #fec89d } 
		.s29 { fill: #f1e0c8 } 
		.s30 { fill: #0e6465 } 
		.s31 { fill: #dfbca0 } 
		.s32 { fill: #623412 } 
		.s33 { fill: #ac4e3d } 
		.s34 { fill: #21862f } 
		.s35 { fill: #c9c0b6 } 
		.s36 { fill: #d7ac88 } 
		.s37 { fill: #fdbe8a } 
		.s38 { fill: #c88b5a } 
		.s39 { fill: #743c1e } 
		.s40 { fill: #ffca9b } 
		.s41 { fill: #fdf1d6 } 
		.s42 { fill: #e0e0e0 } 
		.s43 { fill: #e8dfcf } 
		.s44 { fill: #f4f4f4 } 
		.s45 { fill: #9b6135 } 
		.s46 { fill: #20140a } 
		.s47 { fill: #c4864f } 
		.s48 { fill: #2d4e7c } 
		.s49 { fill: #fc513d } 
		.s50 { fill: #fdc08e } 
		.s51 { fill: #269b36 } 
		.s52 { fill: #259334 } 
		.s53 { fill: #8b812e } 
		.s54 { fill: #feac80 } 
		.s55 { fill: #593c24 } 
		.s56 { fill: #6a6a6a } 
		.s57 { fill: #281a0d } 
		.s58 { fill: #494949 } 
		.s59 { fill: #4e4e4e } 
		.s60 { fill: #603718 } 
		.s61 { fill: #cbb5a7 } 
		.s62 { fill: #fd563f } 
		.s63 { fill: #f34130 } 
		.s64 { fill: #207e2d } 
		.s65 { fill: #21852f } 
		.s66 { fill: #238b32 } 
		.s67 { fill: #c5c5c5 } 
		.s68 { fill: #b9723e } 
		.s69 { fill: #956031 } 
		.s70 { fill: #6c4624 } 
		.s71 { fill: #e5c7b2 } 
		.s72 { fill: #3b2923 } 
		.s73 { fill: #3f3643 } 
		.s74 { fill: #77371e } 
		.s75 { fill: #ceb19d } 
		.s76 { fill: #febd90 } 
		.s77 { fill: #115a79 } 
		.s78 { fill: #1c5e7a } 
		.s79 { fill: #60667e } 
		.s80 { fill: #f6a84d } 
		.s81 { fill: #f3dbbc } 
		.s82 { fill: #faca91 } 
		.s83 { fill: #7f6558 } 
		.s84 { fill: #ef3c2e } 
		.s85 { fill: #166261 } 
		.s86 { fill: #1f6e6b } 
		.s87 { fill: #ffbd95 } 
		.s88 { fill: #c99b6e } 
		.s89 { fill: #2baa3d } 
		.s90 { fill: #0c6688 } 
		.s91 { fill: #ffbb88 } 
		.s92 { fill: #e1e2e3 } 
		.s93 { fill: #d0d0d0 } 
		.s94 { fill: #955c32 } 
		.s95 { fill: #8f5b31 } 
		.s96 { fill: #764827 } 
		.s97 { fill: #c78a58 } 
		.s98 { fill: #d2a379 } 
		.s99 { fill: #dcb596 } 
		.s100 { fill: #d3a17d } 
		.s101 { fill: #dbb595 } 
		.s102 { fill: #703f1e } 
		.s103 { fill: #606060 } 
		.s104 { fill: #666666 } 
		.s105 { fill: #373737 } 
		.s106 { fill: #4c2d1a } 
		.s107 { fill: #2e2e2e } 
		.s108 { fill: #463227 } 
		.s109 { fill: #5c3424 } 
		.s110 { fill: #373434 } 
		.s111 { fill: #a394a9 } 
		.s112 { fill: #67381b } 
		.s113 { fill: #9d7e69 } 
		.s114 { fill: #7f5c47 } 
		.s115 { fill: #cec4bd } 
		.s116 { fill: #693f23 } 
		.s117 { fill: #a08ba2 } 
		.s118 { fill: #8a8a8a } 
		.s119 { fill: #135685 } 
		.s120 { fill: #1f5f7d } 
		.s121 { fill: #0d6b7c } 
		.s122 { fill: #354a6f } 
		.s123 { fill: #254a77 } 
		.s124 { fill: #6d7d4a } 
		.s125 { fill: #34656c } 
		.s126 { fill: #eab262 } 
		.s127 { fill: #fb9b1f } 
		.s128 { fill: #ffcb98 } 
		.s129 { fill: #abae8f } 
		.s130 { fill: #116d73 } 
		.s131 { fill: #91a089 } 
		.s132 { fill: #fecb99 } 
		.s133 { fill: #eccda0 } 
		.s134 { fill: #907762 } 
		.s135 { fill: #f4421f } 
		.s136 { fill: #925950 } 
		.s137 { fill: #f13f2d } 
		.s138 { fill: #fa4027 } 
		.s139 { fill: #1c675f } 
		.s140 { fill: #f7593f } 
		.s141 { fill: #446d68 } 
		.s142 { fill: #a0523d } 
		.s143 { fill: #f4593b } 
		.s144 { fill: #a7a38a } 
		.s145 { fill: #f3cda5 } 
		.s146 { fill: #fdc895 } 
		.s147 { fill: #e6cfb8 } 
		.s148 { fill: #325f59 } 
		.s149 { fill: #af4638 } 
		.s150 { fill: #a95744 } 
		.s151 { fill: #a94939 } 
		.s152 { fill: #a84b3c } 
		.s153 { fill: #a85d4e } 
		.s154 { fill: #ab5b4b } 
		.s155 { fill: #ac5a4c } 
		.s156 { fill: #4c7f74 } 
		.s157 { fill: #eee0d9 } 
		.s158 { fill: #ebe2db } 
		.s159 { fill: #ed926a } 
		.s160 { fill: #20715d } 
		.s161 { fill: #e8e4dd } 
		.s162 { fill: #29a53a } 
		.s163 { fill: #21822f } 
		.s164 { fill: #fa9f00 } 
		.s165 { fill: #1f7e2f } 
		.s166 { fill: #279a37 } 
		.s167 { fill: #1e772b } 
		.s168 { fill: #248f33 } 
		.s169 { fill: #d3a413 } 
		.s170 { fill: #269836 } 
		.s171 { fill: #6abb34 } 
		.s172 { fill: #228a31 } 
		.s173 { fill: #e8e7e7 } 
		.s174 { fill: #f99d25 } 
		.s175 { fill: #9e8823 } 
		.s176 { fill: #dda325 } 
		.s177 { fill: #116e6f } 
		.s178 { fill: #d29f25 } 
		.s179 { fill: #c2c2c2 } 
		.s180 { fill: #f9daad } 
		.s181 { fill: #e9e9e9 } 
		.s182 { fill: #fffffd } 
		.s183 { fill: #f4ebe5 } 
		.s184 { fill: #8b8b8b } 
		.s185 { fill: #7e7e7e } 
		.s186 { fill: #ababab } 
		.s187 { fill: #7b7b7b } 
		.s188 { fill: #704726 } 
		.s189 { fill: #7e5b3c } 
		.s190 { fill: #9c6034 } 
		.s191 { fill: #212121 } 
		.s192 { fill: #2c1d0f } 
		.s193 { fill: #191008 } 
		.s194 { fill: #54351c } 
		.s195 { fill: #d29e78 } 
		.s196 { fill: #dbb494 } 
		.s197 { fill: #0d0804 } 
		.s198 { fill: #ae7b4e } 
		.s199 { fill: #d3a987 } 
		.s200 { fill: #87532d } 
		.s201 { fill: #603d20 } 
		.s202 { fill: #bf7c40 } 
		.s203 { fill: #7d512a } 
		.s204 { fill: #937b65 } 
		.s205 { fill: #e3c6ac } 
		.s206 { fill: #4c3119 } 
		.s207 { fill: #8d592f } 
		.s208 { fill: #dfbba0 } 
		.s209 { fill: #6e4625 } 
		.s210 { fill: #7a7a7a } 
		.s211 { fill: #020201 } 
		.s212 { fill: #321e10 } 
		.s213 { fill: #a07c61 } 
		.s214 { fill: #725642 } 
		.s215 { fill: #35281c } 
		.s216 { fill: #905c32 } 
		.s217 { fill: #ca8e62 } 
		.s218 { fill: #dcb697 } 
		.s219 { fill: #cb9365 } 
		.s220 { fill: #d7ab87 } 
		.s221 { fill: #d6c1b5 } 
		.s222 { fill: #8c8a8e } 
		.s223 { fill: #888888 } 
	</style>
	<path fill-rule="evenodd" class="s0" d="m305 210c9.9 0 19.8 0 30 0q0 2.5 0 5 2.5 0 5 0 0 2.5 0 5 2.5 0 5 0c0 4.9 0 9.9 0 15q2.5 0 5 0c0 4.9 0 9.9 0 15q-2.5 0-5 0c0 6.6 0 13.2 0 20q-2.5 0-5 0c0 4.9 0 9.9 0 15 4.9 0 9.9 0 15 0q0 2.5 0 5c4.9 0 9.9 0 15 0 0 3.3 0 6.6 0 10q2.5 0 5 0c0 3.3 0 6.6 0 10q2.5 0 5 0c0 4.9 0 9.9 0 15q2.5 0 5 0c0 3.3 0 6.6 0 10q2.5 0 5 0c0 3.3 0 6.6 0 10q2.5 0 5 0c0 3.3 0 6.6 0 10q-2.5 0-5 0 0 2.5 0 5-2.5 0-5 0 0 2.5 0 5-2.5 0-5 0 0 2.5 0 5-2.5 0-5 0c0 3.3-0.1 1.6-0.1 5-1.6 0-3.1 0-4.8 0 0-1.6-0.1 1.7-0.1 0-4.9 0-9.9 0-15 0 0 39.6 0 79.2 0 120q-2.5 0-5 0c0 14.9 0 29.7 0 45q2.5 0 5 0 0 2.5 0 5c3.3 0 6.6 0 10 0q0 2.5 0 5 2.5 0 5 0 0 2.5 0 5-2.5 0-5 0 0 2.5 0 5c-4.9 0-9.9 0-15 0q0-2.5 0-5c-4.9 0-9.9 0-15 0q0-2.5 0-5-2.5 0-5 0c0-3.3 0-6.6 0-10q2.5 0 5 0 0-2.5 0-5-2.5 0-5 0c0-21.5 0-42.9 0-65-6.6 0-13.2 0-20 0 0 21.4 0 42.9 0 65q-2.5 0-5 0 0 2.5 0 5 2.5 0 5 0c0 3.3 0 6.6 0 10q-2.5 0-5 0 0 2.5 0 5c-4.9 0-9.9 0-15 0q0 2.5 0 5c-4.9 0-9.9 0-15 0q0-2.5 0-5-2.5 0-5 0 0-2.5 0-5 2.5 0 5 0 0-2.5 0-5c4.9 0 9.9 0 15 0 0-23.1 0-46.2 0-70q-2.5 0-5 0c0-33 0-66 0-100-4.9 0-9.9 0-15 0q0 0 0 0 0 0 0 0 0 0 0 0 0 0 0 0 0 0 0 0c-1.6 0-3.4 0-5.1 0 0-3.3 0.1-1.6 0.1-5q-2.5 0-5 0 0-2.5 0-5-2.5 0-5 0 0-2.5 0-5-2.5 0-5 0 0-2.5 0-5-2.5 0-5 0c0-3.3 0-6.6 0-10q2.5 0 5 0c0-3.3 0-6.6 0-10q2.5 0 5 0c0-3.3 0-6.6 0-10q2.5 0 5 0c0-4.9 0-9.9 0-15q2.5 0 5 0c0-3.3 0-6.6 0-10q2.5 0 5 0c0-3.3 0-6.6 0-10 3.3 0 6.6 0 10 0q0-2.5 0-5c6.6 0 13.2 0 20 0 0-4.9 0-9.9 0-15q-2.5 0-5 0c0-6.6 0-13.2 0-20q-2.5 0-5 0c0-3.3 0-6.6 0-10q2.5 0 5 0c0-6.6 0-13.2 0-20q2.5 0 5 0 0-2.5 0-5 2.5 0 5 0 0-2.5 0-5zm-35 165q0 0 0 0c0-0.8 0-0.4 0 0zm0 0c0 0.4 0 0.8 0 0q0 0 0 0zm10-50q0 2.5 0 5-2.5 0-5 0c0 3.3 0 6.6 0 10q-2.5 0-5 0 0 2.5 0 5-2.5 0-5 0 0 2.5 0 5c3.3 0 6.6 0 10 0q0 2.5 0 5 2.5 0 5 0 0-2.5 0-5 2.5 0 5 0c0-8.3 0-16.5 0-25q-2.5 0-5 0zm75 0c0 6.6 0 13.2 0 20 3.3 0 6.6 0 10 0q0 2.5 0 5c3.3 0 6.6 0 10 0q0-2.5 0-5-2.5 0-5 0 0-2.5 0-5-2.5 0-5 0c0-3.3 0-6.6 0-10q-2.5 0-5 0 0-2.5 0-5-2.5 0-5 0zm0 25q0 2.5 0 5 2.5 0 5 0 0-2.5 0-5-2.5 0-5 0z"/>
	<path class="s1" d="m305 210c9.9 0 19.8 0 30 0q0 2.5 0 5 2.5 0 5 0 0 2.5 0 5 2.5 0 5 0c0 4.9 0 9.9 0 15q2.5 0 5 0c0 4.9 0 9.9 0 15q-2.5 0-5 0c0 6.6 0 13.2 0 20q-2.5 0-5 0c0 4.9 0 9.9 0 15 4.9 0 9.9 0 15 0q0 2.5 0 5c4.9 0 9.9 0 15 0 0 3.3 0 6.6 0 10q2.5 0 5 0c0 3.3 0 6.6 0 10q2.5 0 5 0c0 4.9 0 9.9 0 15q2.5 0 5 0c0 3.3 0 6.6 0 10q2.5 0 5 0c0 3.3 0 6.6 0 10q2.5 0 5 0c0 3.3 0 6.6 0 10q-2.5 0-5 0 0 2.5 0 5-2.5 0-5 0 0 2.5 0 5-2.5 0-5 0 0 2.5 0 5-2.5 0-5 0c0 3.3-0.1 1.8-0.1 5.2-1.6 0-2.9-0.1-4.6-0.1 0-1.6-0.3 1.6-0.3-0.1-3.3 0-6.6 0-10 0q0-2.5 0-5c3.3 0 6.6 0 10 0q0-2.5 0-5 2.5 0 5 0 0-2.5 0-5c-3.3 0-6.6 0-10 0q0-2.5 0-5 2.5 0 5 0 0-2.5 0-5 2.5 0 5 0 0-2.5 0-5-2.5 0-5 0 0-2.5 0-5-2.5 0-5 0c0-3.3 0-6.6 0-10q-2.5 0-5 0 0-2.5 0-5-2.5 0-5 0c0 6.6 0 13.2 0 20-3.3 0-6.6 0-10 0q0 2.5 0 5-2.5 0-5 0 0-2.5 0-5c-3.3 0-6.6 0-10 0q0 2.5 0 5-2.5 0-5 0 0-2.5 0-5c-3.3 0-6.6 0-10 0q0 2.5 0 5-2.5 0-5 0 0 2.5 0 5-2.5 0-5 0c0-3.3 0-6.6 0-10q-2.5 0-5 0 0 2.5 0 5-2.5 0-5 0 0 2.5 0 5-2.5 0-5 0c0-3.3 0-6.6 0-10q-2.5 0-5 0c0-6.6 0-13.2 0-20q-2.5 0-5 0 0 2.5 0 5-2.5 0-5 0c0 3.3 0 6.6 0 10q-2.5 0-5 0 0 2.5 0 5-2.5 0-5 0 0 2.5 0 5c3.3 0 6.6 0 10 0 0 3.3 0 6.6 0 10-3.3 0-6.6 0-10 0q0 2.5 0 5c3.3 0 6.6 0 10 0q0 2.5 0 5 2.5 0 5 0 0 2.5 0 5c-3.3 0-6.6 0-10 0 0 1.7-0.1-1.5-0.1 0.2-1.7 0-3.3-0.1-5-0.1 0-3.3 0.1-1.7 0.1-5.1q-2.5 0-5 0 0-2.5 0-5-2.5 0-5 0 0-2.5 0-5-2.5 0-5 0 0-2.5 0-5-2.5 0-5 0c0-3.3 0-6.6 0-10q2.5 0 5 0c0-3.3 0-6.6 0-10q2.5 0 5 0c0-3.3 0-6.6 0-10q2.5 0 5 0c0-4.9 0-9.9 0-15q2.5 0 5 0c0-3.3 0-6.6 0-10q2.5 0 5 0c0-3.3 0-6.6 0-10 3.3 0 6.6 0 10 0q0-2.5 0-5c6.6 0 13.2 0 20 0 0-4.9 0-9.9 0-15q-2.5 0-5 0c0-6.6 0-13.2 0-20q-2.5 0-5 0c0-3.3 0-6.6 0-10q2.5 0 5 0c0-6.6 0-13.2 0-20q2.5 0 5 0 0-2.5 0-5 2.5 0 5 0 0-2.5 0-5z"/>
	<path class="s2" d="m320 375c11.6 0 23.1 0 35 0 0 39.6 0 79.2 0 120q-2.5 0-5 0c0 14.9 0 29.7 0 45q2.5 0 5 0 0 2.5 0 5c3.3 0 6.6 0 10 0q0 2.5 0 5 2.5 0 5 0 0 2.5 0 5-2.5 0-5 0 0 2.5 0 5c-4.9 0-9.9 0-15 0q0-2.5 0-5c-4.9 0-9.9 0-15 0q0-2.5 0-5-2.5 0-5 0c0-3.3 0-6.6 0-10q2.5 0 5 0 0-2.5 0-5-2.5 0-5 0c0-21.5 0-42.9 0-65-3.3 0-6.6 0-10 0 0-31.4 0-62.7 0-95z"/>
	<path class="s3" d="m305 210c9.9 0 19.8 0 30 0q0 2.5 0 5 2.5 0 5 0 0 2.5 0 5 2.5 0 5 0c0 4.9 0 9.9 0 15q2.5 0 5 0c0 4.9 0 9.9 0 15q-2.5 0-5 0c0 6.6 0 13.2 0 20q-2.5 0-5 0c0 3.3 0 6.6 0 10-3.3 0-6.6 0-10 0q0 2.5 0 5c-6.6 0-13.2 0-20 0q0-2.5 0-5-2.5 0-5 0 0-2.5 0-5-2.5 0-5 0 0-2.5 0-5-2.5 0-5 0c0-6.6 0-13.2 0-20q-2.5 0-5 0c0-3.3 0-6.6 0-10q2.5 0 5 0c0-6.6 0-13.2 0-20q2.5 0 5 0 0-2.5 0-5 2.5 0 5 0 0-2.5 0-5z"/>
	<path fill-rule="evenodd" class="s4" d="m285 345q2.5 0 5 0c0 3.3 0 6.6 0 10q2.5 0 5 0 0-2.5 0-5 2.5 0 5 0 0-2.5 0-5 2.5 0 5 0c0 3.3 0 6.6 0 10q2.5 0 5 0 0-2.5 0-5 2.5 0 5 0 0-2.5 0-5c3.3 0 6.6 0 10 0q0 2.5 0 5 2.5 0 5 0 0-2.5 0-5c3.3 0 6.6 0 10 0q0 2.5 0 5 2.5 0 5 0 0-2.5 0-5c6.6 0 13.2 0 20 0q0 2.5 0 5 2.5 0 5 0 0 2.5 0 5-2.5 0-5 0 0 2.5 0 5c3.3 0 6.6 0 10 0q0 2.5 0 5-2.5 0-5 0 0 2.5 0 5c-3.3 0-6.6 0-10 0q0 2.5 0 5c-26.4 0-52.8 0-80 0q0-2.5 0-5-2.5 0-5 0 0-2.5 0-5c-3.3 0-6.6 0-10 0q0-2.5 0-5c3.3 0 6.6 0 10 0q0-2.5 0-5 2.5 0 5 0 0-2.5 0-5 2.5 0 5 0 0-2.5 0-5zm70 5q0 2.5 0 5 2.5 0 5 0 0-2.5 0-5-2.5 0-5 0z"/>
	<path class="s5" d="m285 385q2.5 0 5 0c0 28.1 0 56.1 0 85 6.6 0 13.2 0 20 0 0 21.4 0 42.9 0 65q-2.5 0-5 0 0 2.5 0 5 2.5 0 5 0c0 3.3 0 6.6 0 10q-2.5 0-5 0 0 2.5 0 5c-4.9 0-9.9 0-15 0q0 2.5 0 5c-4.9 0-9.9 0-15 0q0-2.5 0-5-2.5 0-5 0 0-2.5 0-5 2.5 0 5 0 0-2.5 0-5c4.9 0 9.9 0 15 0 0-23.1 0-46.2 0-70q-2.5 0-5 0c0-29.7 0-59.4 0-90z"/>
	<path class="s6" d="m280 285c3.3 0 6.6 0 10 0 0 19.8 0 39.6 0 60q-2.5 0-5 0c0-6.6 0-13.2 0-20q-2.5 0-5 0 0 2.5 0 5-2.5 0-5 0c0 3.3 0 6.6 0 10q-2.5 0-5 0 0 2.5 0 5-2.5 0-5 0 0 2.5 0 5c3.3 0 6.6 0 10 0 0 3.3 0 6.6 0 10-3.3 0-6.6 0-10 0q0 2.5 0 5c3.3 0 6.6 0 10 0q0 2.5 0 5 2.5 0 5 0 0 2.5 0 5c-3.3 0-6.6 0-10 0 0 1.6 0-1.7 0 0q-2.4 0-5 0c0-3.3 0-1.6 0-5q-2.5 0-5 0 0-2.5 0-5-2.5 0-5 0 0-2.5 0-5-2.5 0-5 0 0-2.5 0-5-2.5 0-5 0c0-3.3 0-6.6 0-10q2.5 0 5 0c0-3.3 0-6.6 0-10q2.5 0 5 0c0-3.3 0-6.6 0-10q2.5 0 5 0c0-4.9 0-9.9 0-15q2.5 0 5 0c0-3.3 0-6.6 0-10q2.5 0 5 0c0-3.3 0-6.6 0-10 3.3 0 6.6 0 10 0q0-2.5 0-5z"/>
	<path class="s7" d="m350 465q2.5 0 5 0c0 9.9 0 19.8 0 30q-2.5 0-5 0c0 14.9 0 29.7 0 45q2.5 0 5 0 0 2.5 0 5c3.3 0 6.6 0 10 0q0 2.5 0 5 2.5 0 5 0 0 2.5 0 5-2.5 0-5 0 0 2.5 0 5c-4.9 0-9.9 0-15 0q0-2.5 0-5c-4.9 0-9.9 0-15 0q0-2.5 0-5-2.5 0-5 0c0-3.3 0-6.6 0-10q2.5 0 5 0 0-2.5 0-5-2.5 0-5 0c0-21.5 0-42.9 0-65 6.6 0 13.2 0 20 0q0-2.5 0-5z"/>
	<path class="s8" d="m350 285q2.5 0 5 0 0 2.5 0 5c4.9 0 9.9 0 15 0 0 3.3 0 6.6 0 10q2.5 0 5 0c0 3.3 0 6.6 0 10q2.5 0 5 0c0 4.9 0 9.9 0 15q2.5 0 5 0c0 3.3 0 6.6 0 10q2.5 0 5 0c0 3.3 0 6.6 0 10q2.5 0 5 0c0 3.3 0 6.6 0 10q-2.5 0-5 0 0 2.5 0 5-2.5 0-5 0 0 2.5 0 5-2.5 0-5 0 0 2.5 0 5-2.5 0-5 0c0 3.3 0 1.6 0 5q-2.4 0-5 0c0-1.6 0 1.7 0 0-3.3 0-6.6 0-10 0q0-2.5 0-5c3.3 0 6.6 0 10 0q0-2.5 0-5 2.5 0 5 0 0-2.5 0-5c-3.3 0-6.6 0-10 0q0-2.5 0-5 2.5 0 5 0 0-2.5 0-5 2.5 0 5 0 0-2.5 0-5-2.5 0-5 0 0-2.5 0-5-2.5 0-5 0c0-3.3 0-6.6 0-10q-2.5 0-5 0 0-2.5 0-5-2.5 0-5 0c0 6.6 0 13.2 0 20q-2.5 0-5 0c0-19.8 0-39.6 0-60z"/>
	<path class="s9" d="m300 275q2.5 0 5 0 0 2.5 0 5 2.5 0 5 0 0 2.5 0 5c6.6 0 13.2 0 20 0q0-2.5 0-5c3.3 0 6.6 0 10 0q0 2.5 0 5 2.5 0 5 0c0 9.9 0 19.8 0 30-16.5 0-33 0-50 0 0-9.9 0-19.8 0-30q2.5 0 5 0c0-3.3 0-6.6 0-10z"/>
	<path class="s10" d="m295 250q2.5 0 5 0c0 3.3 0 6.6 0 10 4.9 0 9.9 0 15 0q0-2.5 0-5c3.3 0 6.6 0 10 0q0 2.5 0 5c4.9 0 9.9 0 15 0 0-3.3 0-6.6 0-10q2.5 0 5 0c0 6.6 0 13.2 0 20q-2.5 0-5 0c0 3.3 0 6.6 0 10-3.3 0-6.6 0-10 0q0 2.5 0 5c-6.6 0-13.2 0-20 0q0-2.5 0-5-2.5 0-5 0 0-2.5 0-5-2.5 0-5 0 0-2.5 0-5-2.5 0-5 0c0-6.6 0-13.2 0-20z"/>
	<path class="s11" d="m345 285q2.5 0 5 0c0 19.8 0 39.6 0 60q-2.5 0-5 0 0 2.5 0 5-2.5 0-5 0 0-2.5 0-5c-3.3 0-6.6 0-10 0q0 2.5 0 5-2.5 0-5 0 0-2.5 0-5-2.5 0-5 0c0-9.9 0-19.8 0-30 8.3 0 16.5 0 25 0 0-9.9 0-19.8 0-30z"/>
	<path class="s12" d="m305 210c9.9 0 19.8 0 30 0q0 2.5 0 5 2.5 0 5 0 0 2.5 0 5 2.5 0 5 0c0 4.9 0 9.9 0 15-16.5 0-33 0-50 0 0-4.9 0-9.9 0-15q2.5 0 5 0 0-2.5 0-5 2.5 0 5 0 0-2.5 0-5z"/>
	<path class="s13" d="m295 360c26.4 0 52.8 0 80 0q0 2.5 0 5-2.5 0-5 0 0 2.5 0 5c-11.6 0-23.1 0-35 0q0-2.5 0-5-2.5 0-5 0 0 2.5 0 5c-6.6 0-13.2 0-20 0q0-2.5 0-5-2.5 0-5 0 0 2.5 0 5c-4.9 0-9.9 0-15 0q0-2.5 0-5 2.5 0 5 0 0-2.5 0-5z"/>
	<path class="s14" d="m295 540q2.5 0 5 0 0 2.5 0 5 2.5 0 5 0 0-2.5 0-5 2.5 0 5 0c0 3.3 0 6.6 0 10q-2.5 0-5 0 0 2.5 0 5c-4.9 0-9.9 0-15 0q0 2.5 0 5c-4.9 0-9.9 0-15 0q0-2.5 0-5-2.5 0-5 0 0-2.5 0-5 2.5 0 5 0 0-2.5 0-5c6.6 0 13.2 0 20 0q0-2.5 0-5z"/>
	<path class="s15" d="m285 365q2.5 0 5 0 0 2.5 0 5c4.9 0 9.9 0 15 0q0-2.5 0-5 2.5 0 5 0 0 2.5 0 5c6.6 0 13.2 0 20 0q0-2.5 0-5 2.5 0 5 0 0 2.5 0 5c8.3 0 16.5 0 25 0q0 2.5 0 5c-26.4 0-52.8 0-80 0q0-2.5 0-5 2.5 0 5 0 0-2.5 0-5z"/>
	<path class="s16" d="m340 540q2.5 0 5 0 0 2.5 0 5c6.6 0 13.2 0 20 0q0 2.5 0 5 2.5 0 5 0 0 2.5 0 5-2.5 0-5 0 0 2.5 0 5c-4.9 0-9.9 0-15 0q0-2.5 0-5c-4.9 0-9.9 0-15 0q0-2.5 0-5-2.5 0-5 0 0-2.5 0-5c3.3 0 6.6 0 10 0q0-2.5 0-5z"/>
	<path class="s17" d="m295 235c16.5 0 33 0 50 0q0 2.5 0 5c-4.9 0-9.9 0-15 0q0 2.5 0 5c-4.9 0-9.9 0-15 0q0-2.5 0-5-2.5 0-5 0 0 2.5 0 5c-4.9 0-9.9 0-15 0q0 2.5 0 5-2.5 0-5 0c0-3.3 0-6.6 0-10q2.5 0 5 0 0-2.5 0-5z"/>
	<path class="s18" d="m285 385q2.5 0 5 0c0 26.4 0 52.8 0 80q-2.5 0-5 0c0-26.4 0-52.8 0-80z"/>
	<path class="s19" d="m350 385q2.5 0 5 0c0 26.4 0 52.8 0 80q-2.5 0-5 0c0-26.4 0-52.8 0-80z"/>
	<path class="s20" d="m300 275q2.5 0 5 0 0 2.5 0 5 2.5 0 5 0 0 2.5 0 5c6.6 0 13.2 0 20 0q0 2.5 0 5c-4.9 0-9.9 0-15 0 0 3.3 0 6.6 0 10q-2.5 0-5 0 0 2.5 0 5-2.5 0-5 0 0-2.5 0-5-2.5 0-5 0c0-8.3 0-16.5 0-25z"/>
	<path class="s21" d="m330 525c6.6 0 13.2 0 20 0 0 5 0 9.9 0 15q2.5 0 5 0 0 2.5 0 5c-3.3 0-6.6 0-10 0q0-2.5 0-5-2.5 0-5 0 0 2.5 0 5c-3.3 0-6.6 0-10 0q0-2.5 0-5 2.5 0 5 0 0-2.5 0-5-2.5 0-5 0c0-3.3 0-6.6 0-10z"/>
	<path class="s22" d="m295 360c13.2 0 26.4 0 40 0q0 2.5 0 5-2.5 0-5 0 0 2.5 0 5c-6.6 0-13.2 0-20 0q0-2.5 0-5-2.5 0-5 0 0 2.5 0 5c-4.9 0-9.9 0-15 0q0-2.5 0-5 2.5 0 5 0 0-2.5 0-5z"/>
	<path class="s23" d="m290 525c6.6 0 13.2 0 20 0 0 3.3 0 6.6 0 10q-2.5 0-5 0c0 3.3 0 6.6 0 10q-2.5 0-5 0 0-2.5 0-5-2.5 0-5 0 0 2.5 0 5-2.5 0-5 0c0-6.6 0-13.2 0-20z"/>
	<path class="s24" d="m270 350q2.5 0 5 0c0 3.3 0 6.6 0 10-3.3 0-6.6 0-10 0q0 2.5 0 5c3.3 0 6.6 0 10 0q0 2.5 0 5 2.5 0 5 0 0 2.5 0 5c-3.3 0-6.6 0-10 0 0 1.6 0-1.8 0-0.1q-2.4 0-5 0c0-3.3 0-1.5 0-4.9q-2.5 0-5 0c0-4.9 0-9.9 0-15 3.3 0 6.6 0 10 0q0-2.5 0-5z"/>
	<path class="s25" d="m330 210q2.5 0 5 0 0 2.5 0 5 2.5 0 5 0 0 2.5 0 5 2.5 0 5 0c0 4.9 0 9.9 0 15-4.9 0-9.9 0-15 0 0-8.3 0-16.5 0-25z"/>
	<path class="s26" d="m295 250q2.5 0 5 0c0 3.3 0 6.6 0 10 4.9 0 9.9 0 15 0q0 2.5 0 5c4.9 0 9.9 0 15 0q0 2.5 0 5c-6.6 0-13.2 0-20 0q0-2.5 0-5c-3.3 0-6.6 0-10 0q0 2.5 0 5-2.5 0-5 0c0-6.6 0-13.2 0-20z"/>
	<path class="s27" d="m300 215c3.3 0 6.6 0 10 0 0 6.6 0 13.2 0 20-4.9 0-9.9 0-15 0 0-4.9 0-9.9 0-15q2.5 0 5 0 0-2.5 0-5z"/>
	<path class="s28" d="m365 355c4.9 0 9.9 0 15 0 0 4.9 0 9.9 0 15q-2.5 0-5 0c0 3.3-0.1 1.7-0.1 5.1-1.6 0-3-0.1-4.7-0.1 0-1.6-0.2 1.7-0.2 0-3.3 0-6.6 0-10 0q0-2.5 0-5c3.3 0 6.6 0 10 0q0-2.5 0-5 2.5 0 5 0 0-2.5 0-5c-3.3 0-6.6 0-10 0q0-2.5 0-5z"/>
	<path class="s29" d="m340 285q2.5 0 5 0c0 9.9 0 19.8 0 30-8.3 0-16.5 0-25 0q0-2.5 0-5c6.6 0 13.2 0 20 0 0-8.3 0-16.5 0-25z"/>
	<path class="s30" d="m330 365q2.5 0 5 0 0 2.5 0 5c8.3 0 16.5 0 25 0q0 2.5 0 5c-13.2 0-26.4 0-40 0q0-2.5 0-5c3.3 0 6.6 0 10 0q0-2.5 0-5z"/>
	<path class="s31" d="m310 240q2.5 0 5 0c0 3.3 0 6.6 0 10-3.3 0-6.6 0-10 0q0 2.5 0 5c3.3 0 6.6 0 10 0q0 2.5 0 5c-4.9 0-9.9 0-15 0 0-3.3 0-6.6 0-10q-2.5 0-5 0 0-2.5 0-5c4.9 0 9.9 0 15 0q0-2.5 0-5z"/>
	<path class="s32" d="m340 540q2.5 0 5 0 0 2.5 0 5c6.6 0 13.2 0 20 0q0 2.5 0 5c-11.6 0-23.1 0-35 0q0-2.5 0-5c3.3 0 6.6 0 10 0q0-2.5 0-5z"/>
	<path class="s33" d="m265 360c9.9 0 19.8 0 30 0q0 2.5 0 5c-3.3 0-6.6 0-10 0q0 2.5 0 5c-3.3 0-6.6 0-10 0q0-2.5 0-5c-3.3 0-6.6 0-10 0q0-2.5 0-5z"/>
	<path class="s34" d="m345 345c6.6 0 13.2 0 20 0q0 2.5 0 5 2.5 0 5 0 0 2.5 0 5c-3.3 0-6.6 0-10 0q0-2.5 0-5c-3.3 0-6.6 0-10 0q0 2.5 0 5c-3.3 0-6.6 0-10 0q0-2.5 0-5 2.5 0 5 0 0-2.5 0-5z"/>
	<path class="s35" d="m335 535c4.9 0 9.9 0 15 0q0 2.5 0 5 2.5 0 5 0 0 2.5 0 5c-3.3 0-6.6 0-10 0q0-2.5 0-5-2.5 0-5 0 0 2.5 0 5c-3.3 0-6.6 0-10 0q0-2.5 0-5 2.5 0 5 0 0-2.5 0-5z"/>
	<path class="s36" d="m325 220q2.5 0 5 0c0 4.9 0 9.9 0 15-4.9 0-9.9 0-15 0 0-3.3 0-6.6 0-10 3.3 0 6.6 0 10 0q0-2.5 0-5z"/>
	<path class="s37" d="m270 350q2.5 0 5 0c0 3.3 0 6.6 0 10-3.3 0-6.6 0-10 0 0 3.3 0 6.6 0 10q-2.5 0-5 0c0-4.9 0-9.9 0-15 3.3 0 6.6 0 10 0q0-2.5 0-5z"/>
	<path class="s38" d="m315 245c3.3 0 6.6 0 10 0 0 3.3 0 6.6 0 10-6.6 0-13.2 0-20 0q0-2.5 0-5c3.3 0 6.6 0 10 0q0-2.5 0-5z"/>
	<path class="s39" d="m295 540q2.5 0 5 0 0 2.5 0 5 2.5 0 5 0 0-2.5 0-5 2.5 0 5 0c0 3.3 0 6.6 0 10-4.9 0-9.9 0-15 0 0-3.3 0-6.6 0-10z"/>
	<path class="s40" d="m290 535c4.9 0 9.9 0 15 0 0 3.3 0 6.6 0 10q-2.5 0-5 0 0-2.5 0-5-2.5 0-5 0 0 2.5 0 5-2.5 0-5 0c0-3.3 0-6.6 0-10z"/>
	<path class="s41" d="m295 310c8.3 0 16.5 0 25 0q0 2.5 0 5c-8.3 0-16.5 0-25 0q0-2.5 0-5z"/>
	<path class="s42" d="m325 300q2.5 0 5 0 0 2.5 0 5 2.5 0 5 0 0-2.5 0-5 2.5 0 5 0c0 3.3 0 6.6 0 10-4.9 0-9.9 0-15 0 0-3.3 0-6.6 0-10z"/>
	<path class="s43" d="m340 285q2.5 0 5 0c0 8.3 0 16.5 0 25q-2.5 0-5 0c0-8.3 0-16.5 0-25z"/>
	<path class="s44" d="m295 285q2.5 0 5 0c0 8.3 0 16.5 0 25q-2.5 0-5 0c0-8.3 0-16.5 0-25z"/>
	<path class="s45" d="m295 235q2.5 0 5 0 0 2.5 0 5 2.5 0 5 0 0 2.5 0 5c-3.3 0-6.6 0-10 0q0 2.5 0 5-2.5 0-5 0c0-3.3 0-6.6 0-10q2.5 0 5 0 0-2.5 0-5z"/>
	<path class="s46" d="m325 235c6.6 0 13.2 0 20 0q0 2.5 0 5c-4.9 0-9.9 0-15 0q0 2.5 0 5-2.5 0-5 0c0-3.3 0-6.6 0-10z"/>
	<path class="s47" d="m330 225c3.3 0 6.6 0 10 0q0 2.5 0 5 2.5 0 5 0 0 2.5 0 5c-4.9 0-9.9 0-15 0 0-3.3 0-6.6 0-10z"/>
	<path class="s48" d="m350 475q2.5 0 5 0c0 6.6 0 13.2 0 20q-2.5 0-5 0c0-6.6 0-13.2 0-20z"/>
	<path class="s49" d="m310 365c6.6 0 13.2 0 20 0q0 2.5 0 5c-6.6 0-13.2 0-20 0q0-2.5 0-5z"/>
	<path class="s50" d="m365 355c4.9 0 9.9 0 15 0 0 3.3 0 6.6 0 10q-2.5 0-5 0 0-2.5 0-5c-3.3 0-6.6 0-10 0q0-2.5 0-5z"/>
	<path class="s51" d="m355 345c3.3 0 6.6 0 10 0q0 2.5 0 5 2.5 0 5 0 0 2.5 0 5c-3.3 0-6.6 0-10 0q0-2.5 0-5-2.5 0-5 0 0-2.5 0-5z"/>
	<path class="s52" d="m315 345c3.3 0 6.6 0 10 0q0 2.5 0 5-2.5 0-5 0 0 2.5 0 5c-3.3 0-6.6 0-10 0q0-2.5 0-5 2.5 0 5 0 0-2.5 0-5z"/>
	<path class="s53" d="m330 320c3.3 0 6.6 0 10 0 0 3.3 0 6.6 0 10-3.3 0-6.6 0-10 0 0-3.3 0-6.6 0-10z"/>
	<path class="s54" d="m310 285c6.6 0 13.2 0 20 0q0 2.5 0 5c-6.6 0-13.2 0-20 0q0-2.5 0-5z"/>
	<path class="s55" d="m310 265c6.6 0 13.2 0 20 0q0 2.5 0 5c-6.6 0-13.2 0-20 0q0-2.5 0-5z"/>
	<path class="s56" d="m345 235q2.5 0 5 0c0 4.9 0 9.9 0 15-3.3 0-6.6 0-10 0q0-2.5 0-5 2.5 0 5 0c0-3.3 0-6.6 0-10z"/>
	<path class="s57" d="m300 235c4.9 0 9.9 0 15 0q0 2.5 0 5-2.5 0-5 0 0 2.5 0 5-2.5 0-5 0 0-2.5 0-5-2.5 0-5 0 0-2.5 0-5z"/>
	<path class="s58" d="m350 555c4.9 0 9.9 0 15 0q0 2.5 0 5c-4.9 0-9.9 0-15 0q0-2.5 0-5z"/>
	<path class="s59" d="m275 555c4.9 0 9.9 0 15 0q0 2.5 0 5c-4.9 0-9.9 0-15 0q0-2.5 0-5z"/>
	<path class="s60" d="m355 550c4.9 0 9.9 0 15 0q0 2.5 0 5c-4.9 0-9.9 0-15 0q0-2.5 0-5z"/>
	<path class="s61" d="m345 535q2.5 0 5 0 0 2.5 0 5 2.5 0 5 0 0 2.5 0 5c-3.3 0-6.6 0-10 0 0-3.3 0-6.6 0-10z"/>
	<path class="s62" d="m335 365c4.9 0 9.9 0 15 0q0 2.5 0 5c-4.9 0-9.9 0-15 0q0-2.5 0-5z"/>
	<path class="s63" d="m290 365c4.9 0 9.9 0 15 0q0 2.5 0 5c-4.9 0-9.9 0-15 0q0-2.5 0-5z"/>
	<path class="s64" d="m300 345q2.5 0 5 0c0 3.3 0 6.6 0 10-3.3 0-6.6 0-10 0q0-2.5 0-5 2.5 0 5 0 0-2.5 0-5z"/>
	<path class="s65" d="m285 345q2.5 0 5 0c0 3.3 0 6.6 0 10-3.3 0-6.6 0-10 0q0-2.5 0-5 2.5 0 5 0 0-2.5 0-5z"/>
	<path class="s66" d="m330 345c3.3 0 6.6 0 10 0q0 2.5 0 5-2.5 0-5 0 0 2.5 0 5-2.5 0-5 0c0-3.3 0-6.6 0-10z"/>
	<path class="s67" d="m300 275q2.5 0 5 0 0 2.5 0 5 2.5 0 5 0 0 2.5 0 5c-3.3 0-6.6 0-10 0 0-3.3 0-6.6 0-10z"/>
	<path class="s68" d="m335 250q2.5 0 5 0c0 3.3 0 6.6 0 10-3.3 0-6.6 0-10 0q0-2.5 0-5 2.5 0 5 0 0-2.5 0-5z"/>
	<path class="s69" d="m325 250c3.3 0 6.6 0 10 0q0 2.5 0 5-2.5 0-5 0 0 2.5 0 5-2.5 0-5 0c0-3.3 0-6.6 0-10z"/>
	<path class="s70" d="m335 240c3.3 0 6.6 0 10 0q0 2.5 0 5-2.5 0-5 0 0 2.5 0 5-2.5 0-5 0c0-3.3 0-6.6 0-10z"/>
	<path class="s71" d="m305 210c3.3 0 6.6 0 10 0 0 3.3 0 6.6 0 10q-2.5 0-5 0 0-2.5 0-5-2.5 0-5 0 0-2.5 0-5z"/>
	<path class="s72" d="m335 550c3.3 0 6.6 0 10 0q0 2.5 0 5c-3.3 0-6.6 0-10 0q0-2.5 0-5z"/>
	<path class="s73" d="m295 550c3.3 0 6.6 0 10 0q0 2.5 0 5c-3.3 0-6.6 0-10 0q0-2.5 0-5z"/>
	<path class="s74" d="m305 540q2.5 0 5 0c0 3.3 0 6.6 0 10q-2.5 0-5 0c0-3.3 0-6.6 0-10z"/>
	<path class="s75" d="m290 535q2.5 0 5 0c0 3.3 0 6.6 0 10q-2.5 0-5 0c0-3.3 0-6.6 0-10z"/>
	<path class="s76" d="m335 535c3.3 0 6.6 0 10 0q0 2.5 0 5c-3.3 0-6.6 0-10 0q0-2.5 0-5z"/>
	<path class="s77" d="m290 525q2.5 0 5 0c0 3.3 0 6.6 0 10q-2.5 0-5 0c0-3.3 0-6.6 0-10z"/>
	<path class="s78" d="m350 465q2.5 0 5 0c0 3.3 0 6.6 0 10q-2.5 0-5 0c0-3.3 0-6.6 0-10z"/>
	<path class="s79" d="m285 465q2.5 0 5 0c0 3.3 0 6.6 0 10q-2.5 0-5 0c0-3.3 0-6.6 0-10z"/>
	<path class="s80" d="m350 375q2.5 0 5 0c0 3.3 0 6.6 0 10q-2.5 0-5 0c0-3.3 0-6.6 0-10z"/>
	<path class="s81" d="m285 375q2.5 0 5 0c0 3.3 0 6.6 0 10q-2.5 0-5 0c0-3.3 0-6.6 0-10z"/>
	<path class="s82" d="m360 370c3.3 0 6.6 0 10 0q0 2.5 0 5c-3.3 0-6.6 0-10 0q0-2.5 0-5z"/>
	<path class="s83" d="m350 365c3.3 0 6.6 0 10 0q0 2.5 0 5c-3.3 0-6.6 0-10 0q0-2.5 0-5z"/>
	<path class="s84" d="m310 365c3.3 0 6.6 0 10 0q0 2.5 0 5c-3.3 0-6.6 0-10 0q0-2.5 0-5z"/>
	<path class="s85" d="m365 360c3.3 0 6.6 0 10 0q0 2.5 0 5c-3.3 0-6.6 0-10 0q0-2.5 0-5z"/>
	<path class="s86" d="m265 360c3.3 0 6.6 0 10 0q0 2.5 0 5c-3.3 0-6.6 0-10 0q0-2.5 0-5z"/>
	<path class="s87" d="m365 355c3.3 0 6.6 0 10 0q0 2.5 0 5c-3.3 0-6.6 0-10 0q0-2.5 0-5z"/>
	<path class="s88" d="m270 350q2.5 0 5 0c0 3.3 0 6.6 0 10q-2.5 0-5 0c0-3.3 0-6.6 0-10z"/>
	<path class="s89" d="m345 345c3.3 0 6.6 0 10 0q0 2.5 0 5c-3.3 0-6.6 0-10 0q0-2.5 0-5z"/>
	<path class="s90" d="m330 320c3.3 0 6.6 0 10 0q0 2.5 0 5c-3.3 0-6.6 0-10 0q0-2.5 0-5z"/>
	<path class="s91" d="m310 285c3.3 0 6.6 0 10 0q0 2.5 0 5c-3.3 0-6.6 0-10 0q0-2.5 0-5z"/>
	<path class="s92" d="m280 285c3.3 0 6.6 0 10 0q0 2.5 0 5c-3.3 0-6.6 0-10 0q0-2.5 0-5z"/>
	<path class="s93" d="m330 280c3.3 0 6.6 0 10 0q0 2.5 0 5c-3.3 0-6.6 0-10 0q0-2.5 0-5z"/>
	<path class="s94" d="m305 250c3.3 0 6.6 0 10 0q0 2.5 0 5c-3.3 0-6.6 0-10 0q0-2.5 0-5z"/>
	<path class="s95" d="m345 235q2.5 0 5 0c0 3.3 0 6.6 0 10q-2.5 0-5 0c0-3.3 0-6.6 0-10z"/>
	<path class="s96" d="m315 235q2.5 0 5 0c0 3.3 0 6.6 0 10q-2.5 0-5 0c0-3.3 0-6.6 0-10z"/>
	<path class="s97" d="m340 220q2.5 0 5 0c0 3.3 0 6.6 0 10q-2.5 0-5 0c0-3.3 0-6.6 0-10z"/>
	<path class="s98" d="m325 220q2.5 0 5 0c0 3.3 0 6.6 0 10q-2.5 0-5 0c0-3.3 0-6.6 0-10z"/>
	<path class="s99" d="m315 225q2.5 0 5 0c0 3.3 0 6.6 0 10q-2.5 0-5 0c0-3.3 0-6.6 0-10z"/>
	<path class="s100" d="m330 210q2.5 0 5 0c0 3.3 0 6.6 0 10q-2.5 0-5 0c0-3.3 0-6.6 0-10z"/>
	<path class="s101" d="m325 210q2.5 0 5 0c0 3.3 0 6.6 0 10q-2.5 0-5 0c0-3.3 0-6.6 0-10z"/>
	<path class="s102" d="m275 545q3 0 6 0-0.5 2.5-1 5-2.5 0-5 0 0-2.5 0-5z"/>
	<path class="s103" d="m360 555q2.5 0 5 0 0 2.5 0 5-2.5 0-5 0 0-2.5 0-5z"/>
	<path class="s104" d="m275 555q2.5 0 5 0 0 2.5 0 5-2.5 0-5 0 0-2.5 0-5z"/>
	<path class="s105" d="m365 550q2.5 0 5 0 0 2.5 0 5-2.5 0-5 0 0-2.5 0-5z"/>
	<path class="s106" d="m345 550q2.5 0 5 0 0 2.5 0 5-2.5 0-5 0 0-2.5 0-5z"/>
	<path class="s107" d="m335 550q2.5 0 5 0 0 2.5 0 5-2.5 0-5 0 0-2.5 0-5z"/>
	<path class="s108" d="m295 550q2.5 0 5 0 0 2.5 0 5-2.5 0-5 0 0-2.5 0-5z"/>
	<path class="s109" d="m290 550q2.5 0 5 0 0 2.5 0 5-2.5 0-5 0 0-2.5 0-5z"/>
	<path class="s110" d="m270 550q2.5 0 5 0 0 2.5 0 5-2.5 0-5 0 0-2.5 0-5z"/>
	<path class="s111" d="m350 540q2.5 0 5 0 0 2.5 0 5-2.5 0-5 0 0-2.5 0-5z"/>
	<path class="s112" d="m340 540q2.5 0 5 0 0 2.5 0 5-2.5 0-5 0 0-2.5 0-5z"/>
	<path class="s113" d="m330 540q2.5 0 5 0 0 2.5 0 5-2.5 0-5 0 0-2.5 0-5z"/>
	<path class="s114" d="m305 540q2.5 0 5 0 0 2.5 0 5-2.5 0-5 0 0-2.5 0-5z"/>
	<path class="s115" d="m300 540q2.5 0 5 0 0 2.5 0 5-2.5 0-5 0 0-2.5 0-5z"/>
	<path class="s116" d="m295 540q2.5 0 5 0 0 2.5 0 5-2.5 0-5 0 0-2.5 0-5z"/>
	<path class="s117" d="m345 535q2.5 0 5 0 0 2.5 0 5-2.5 0-5 0 0-2.5 0-5z"/>
	<path class="s118" d="m290 535q2.5 0 5 0 0 2.5 0 5-2.5 0-5 0 0-2.5 0-5z"/>
	<path class="s119" d="m305 530q2.5 0 5 0 0 2.5 0 5-2.5 0-5 0 0-2.5 0-5z"/>
	<path class="s120" d="m330 520q2.5 0 5 0 0 2.5 0 5-2.5 0-5 0 0-2.5 0-5z"/>
	<path class="s121" d="m305 510q2.5 0 5 0 0 2.5 0 5-2.5 0-5 0 0-2.5 0-5z"/>
	<path class="s122" d="m350 490q2.5 0 5 0 0 2.5 0 5-2.5 0-5 0 0-2.5 0-5z"/>
	<path class="s123" d="m350 485q2.5 0 5 0 0 2.5 0 5-2.5 0-5 0 0-2.5 0-5z"/>
	<path class="s124" d="m350 465q2.5 0 5 0 0 2.5 0 5-2.5 0-5 0 0-2.5 0-5z"/>
	<path class="s125" d="m285 465q2.5 0 5 0 0 2.5 0 5-2.5 0-5 0 0-2.5 0-5z"/>
	<path class="s126" d="m350 375q2.5 0 5 0 0 2.5 0 5-2.5 0-5 0 0-2.5 0-5z"/>
	<path class="s127" d="m345 375q2.5 0 5 0 0 2.5 0 5-2.5 0-5 0 0-2.5 0-5z"/>
	<path class="s128" d="m370 370q2.5 0 5 0 0 2.5 0 5-2.5 0-5 0 0-2.5 0-5z"/>
	<path class="s129" d="m360 370q2.5 0 5 0 0 2.5 0 5-2.5 0-5 0 0-2.5 0-5z"/>
	<path class="s130" d="m280 370q2.5 0 5 0 0 2.5 0 5-2.5 0-5 0 0-2.5 0-5z"/>
	<path class="s131" d="m275 370q2.5 0 5 0 0 2.5 0 5-2.5 0-5 0 0-2.5 0-5z"/>
	<path class="s132" d="m270 370q2.5 0 5 0 0 2.5 0 5-2.5 0-5 0 0-2.5 0-5z"/>
	<path class="s133" d="m370 365q2.5 0 5 0 0 2.5 0 5-2.5 0-5 0 0-2.5 0-5z"/>
	<path class="s134" d="m365 365q2.5 0 5 0 0 2.5 0 5-2.5 0-5 0 0-2.5 0-5z"/>
	<path class="s135" d="m360 365q2.5 0 5 0 0 2.5 0 5-2.5 0-5 0 0-2.5 0-5z"/>
	<path class="s136" d="m350 365q2.5 0 5 0 0 2.5 0 5-2.5 0-5 0 0-2.5 0-5z"/>
	<path class="s137" d="m345 365q2.5 0 5 0 0 2.5 0 5-2.5 0-5 0 0-2.5 0-5z"/>
	<path class="s138" d="m310 365q2.5 0 5 0 0 2.5 0 5-2.5 0-5 0 0-2.5 0-5z"/>
	<path class="s139" d="m305 365q2.5 0 5 0 0 2.5 0 5-2.5 0-5 0 0-2.5 0-5z"/>
	<path class="s140" d="m290 365q2.5 0 5 0 0 2.5 0 5-2.5 0-5 0 0-2.5 0-5z"/>
	<path class="s141" d="m285 365q2.5 0 5 0 0 2.5 0 5-2.5 0-5 0 0-2.5 0-5z"/>
	<path class="s142" d="m280 365q2.5 0 5 0 0 2.5 0 5-2.5 0-5 0 0-2.5 0-5z"/>
	<path class="s143" d="m275 365q2.5 0 5 0 0 2.5 0 5-2.5 0-5 0 0-2.5 0-5z"/>
	<path class="s144" d="m270 365q2.5 0 5 0 0 2.5 0 5-2.5 0-5 0 0-2.5 0-5z"/>
	<path class="s145" d="m265 365q2.5 0 5 0 0 2.5 0 5-2.5 0-5 0 0-2.5 0-5z"/>
	<path class="s146" d="m260 365q2.5 0 5 0 0 2.5 0 5-2.5 0-5 0 0-2.5 0-5z"/>
	<path class="s147" d="m380 360q2.5 0 5 0 0 2.5 0 5-2.5 0-5 0 0-2.5 0-5z"/>
	<path class="s148" d="m365 360q2.5 0 5 0 0 2.5 0 5-2.5 0-5 0 0-2.5 0-5z"/>
	<path class="s149" d="m360 360q2.5 0 5 0 0 2.5 0 5-2.5 0-5 0 0-2.5 0-5z"/>
	<path class="s150" d="m355 360q2.5 0 5 0 0 2.5 0 5-2.5 0-5 0 0-2.5 0-5z"/>
	<path class="s151" d="m345 360q2.5 0 5 0 0 2.5 0 5-2.5 0-5 0 0-2.5 0-5z"/>
	<path class="s152" d="m330 360q2.5 0 5 0 0 2.5 0 5-2.5 0-5 0 0-2.5 0-5z"/>
	<path class="s153" d="m305 360q2.5 0 5 0 0 2.5 0 5-2.5 0-5 0 0-2.5 0-5z"/>
	<path class="s154" d="m290 360q2.5 0 5 0 0 2.5 0 5-2.5 0-5 0 0-2.5 0-5z"/>
	<path class="s155" d="m275 360q2.5 0 5 0 0 2.5 0 5-2.5 0-5 0 0-2.5 0-5z"/>
	<path class="s156" d="m265 360q2.5 0 5 0 0 2.5 0 5-2.5 0-5 0 0-2.5 0-5z"/>
	<path class="s157" d="m255 360q2.5 0 5 0 0 2.5 0 5-2.5 0-5 0 0-2.5 0-5z"/>
	<path class="s158" d="m380 355q2.5 0 5 0 0 2.5 0 5-2.5 0-5 0 0-2.5 0-5z"/>
	<path class="s159" d="m365 355q2.5 0 5 0 0 2.5 0 5-2.5 0-5 0 0-2.5 0-5z"/>
	<path class="s160" d="m365 350q2.5 0 5 0 0 2.5 0 5-2.5 0-5 0 0-2.5 0-5z"/>
	<path class="s161" d="m350 350q2.5 0 5 0 0 2.5 0 5-2.5 0-5 0 0-2.5 0-5z"/>
	<path class="s162" d="m340 350q2.5 0 5 0 0 2.5 0 5-2.5 0-5 0 0-2.5 0-5z"/>
	<path class="s2" d="m335 350q2.5 0 5 0 0 2.5 0 5-2.5 0-5 0 0-2.5 0-5z"/>
	<path class="s163" d="m330 350q2.5 0 5 0 0 2.5 0 5-2.5 0-5 0 0-2.5 0-5z"/>
	<path class="s164" d="m320 350q2.5 0 5 0 0 2.5 0 5-2.5 0-5 0 0-2.5 0-5z"/>
	<path class="s165" d="m310 350q2.5 0 5 0 0 2.5 0 5-2.5 0-5 0 0-2.5 0-5z"/>
	<path class="s166" d="m295 350q2.5 0 5 0 0 2.5 0 5-2.5 0-5 0 0-2.5 0-5z"/>
	<path class="s167" d="m280 350q2.5 0 5 0 0 2.5 0 5-2.5 0-5 0 0-2.5 0-5z"/>
	<path class="s168" d="m355 345q2.5 0 5 0 0 2.5 0 5-2.5 0-5 0 0-2.5 0-5z"/>
	<path class="s169" d="m340 345q2.5 0 5 0 0 2.5 0 5-2.5 0-5 0 0-2.5 0-5z"/>
	<path class="s170" d="m330 345q2.5 0 5 0 0 2.5 0 5-2.5 0-5 0 0-2.5 0-5z"/>
	<path class="s171" d="m320 345q2.5 0 5 0 0 2.5 0 5-2.5 0-5 0 0-2.5 0-5z"/>
	<path class="s172" d="m300 345q2.5 0 5 0 0 2.5 0 5-2.5 0-5 0 0-2.5 0-5z"/>
	<path class="s173" d="m350 340q2.5 0 5 0 0 2.5 0 5-2.5 0-5 0 0-2.5 0-5z"/>
	<path class="s174" d="m345 340q2.5 0 5 0 0 2.5 0 5-2.5 0-5 0 0-2.5 0-5z"/>
	<path class="s175" d="m330 325q2.5 0 5 0 0 2.5 0 5-2.5 0-5 0 0-2.5 0-5z"/>
	<path class="s176" d="m340 320q2.5 0 5 0 0 2.5 0 5-2.5 0-5 0 0-2.5 0-5z"/>
	<path class="s177" d="m330 320q2.5 0 5 0 0 2.5 0 5-2.5 0-5 0 0-2.5 0-5z"/>
	<path class="s178" d="m325 320q2.5 0 5 0 0 2.5 0 5-2.5 0-5 0 0-2.5 0-5z"/>
	<path class="s179" d="m280 320q2.5 0 5 0 0 2.5 0 5-2.5 0-5 0 0-2.5 0-5z"/>
	<path class="s180" d="m340 310q2.5 0 5 0 0 2.5 0 5-2.5 0-5 0 0-2.5 0-5z"/>
	<path class="s181" d="m320 305q2.5 0 5 0 0 2.5 0 5-2.5 0-5 0 0-2.5 0-5z"/>
	<path class="s182" d="m315 290q2.5 0 5 0 0 2.5 0 5-2.5 0-5 0 0-2.5 0-5z"/>
	<path class="s183" d="m330 285q2.5 0 5 0 0 2.5 0 5-2.5 0-5 0 0-2.5 0-5z"/>
	<path class="s184" d="m280 285q2.5 0 5 0 0 2.5 0 5-2.5 0-5 0 0-2.5 0-5z"/>
	<path class="s185" d="m330 280q2.5 0 5 0 0 2.5 0 5-2.5 0-5 0 0-2.5 0-5z"/>
	<path class="s186" d="m305 280q2.5 0 5 0 0 2.5 0 5-2.5 0-5 0 0-2.5 0-5z"/>
	<path class="s187" d="m300 275q2.5 0 5 0 0 2.5 0 5-2.5 0-5 0 0-2.5 0-5z"/>
	<path class="s187" d="m340 265q2.5 0 5 0 0 2.5 0 5-2.5 0-5 0 0-2.5 0-5z"/>
	<path class="s188" d="m325 265q2.5 0 5 0 0 2.5 0 5-2.5 0-5 0 0-2.5 0-5z"/>
	<path class="s189" d="m320 265q2.5 0 5 0 0 2.5 0 5-2.5 0-5 0 0-2.5 0-5z"/>
	<path class="s190" d="m310 265q2.5 0 5 0 0 2.5 0 5-2.5 0-5 0 0-2.5 0-5z"/>
	<path class="s191" d="m295 265q2.5 0 5 0 0 2.5 0 5-2.5 0-5 0 0-2.5 0-5z"/>
	<path class="s192" d="m325 260q2.5 0 5 0 0 2.5 0 5-2.5 0-5 0 0-2.5 0-5z"/>
	<path class="s193" d="m310 260q2.5 0 5 0 0 2.5 0 5-2.5 0-5 0 0-2.5 0-5z"/>
	<path class="s194" d="m305 260q2.5 0 5 0 0 2.5 0 5-2.5 0-5 0 0-2.5 0-5z"/>
	<path class="s195" d="m310 255q2.5 0 5 0 0 2.5 0 5-2.5 0-5 0 0-2.5 0-5z"/>
	<path class="s196" d="m305 255q2.5 0 5 0 0 2.5 0 5-2.5 0-5 0 0-2.5 0-5z"/>
	<path class="s197" d="m340 250q2.5 0 5 0 0 2.5 0 5-2.5 0-5 0 0-2.5 0-5z"/>
	<path class="s198" d="m320 250q2.5 0 5 0 0 2.5 0 5-2.5 0-5 0 0-2.5 0-5z"/>
	<path class="s199" d="m315 250q2.5 0 5 0 0 2.5 0 5-2.5 0-5 0 0-2.5 0-5z"/>
	<path class="s200" d="m305 250q2.5 0 5 0 0 2.5 0 5-2.5 0-5 0 0-2.5 0-5z"/>
	<path class="s201" d="m295 250q2.5 0 5 0 0 2.5 0 5-2.5 0-5 0 0-2.5 0-5z"/>
	<path class="s202" d="m340 245q2.5 0 5 0 0 2.5 0 5-2.5 0-5 0 0-2.5 0-5z"/>
	<path class="s203" d="m335 245q2.5 0 5 0 0 2.5 0 5-2.5 0-5 0 0-2.5 0-5z"/>
	<path class="s204" d="m315 245q2.5 0 5 0 0 2.5 0 5-2.5 0-5 0 0-2.5 0-5z"/>
	<path class="s205" d="m295 245q2.5 0 5 0 0 2.5 0 5-2.5 0-5 0 0-2.5 0-5z"/>
	<path class="s206" d="m335 240q2.5 0 5 0 0 2.5 0 5-2.5 0-5 0 0-2.5 0-5z"/>
	<path class="s207" d="m330 240q2.5 0 5 0 0 2.5 0 5-2.5 0-5 0 0-2.5 0-5z"/>
	<path class="s208" d="m310 240q2.5 0 5 0 0 2.5 0 5-2.5 0-5 0 0-2.5 0-5z"/>
	<path class="s209" d="m300 240q2.5 0 5 0 0 2.5 0 5-2.5 0-5 0 0-2.5 0-5z"/>
	<path class="s210" d="m345 235q2.5 0 5 0 0 2.5 0 5-2.5 0-5 0 0-2.5 0-5z"/>
	<path class="s211" d="m340 235q2.5 0 5 0 0 2.5 0 5-2.5 0-5 0 0-2.5 0-5z"/>
	<path class="s212" d="m330 235q2.5 0 5 0 0 2.5 0 5-2.5 0-5 0 0-2.5 0-5z"/>
	<path class="s213" d="m320 235q2.5 0 5 0 0 2.5 0 5-2.5 0-5 0 0-2.5 0-5z"/>
	<path class="s214" d="m315 235q2.5 0 5 0 0 2.5 0 5-2.5 0-5 0 0-2.5 0-5z"/>
	<path class="s215" d="m300 235q2.5 0 5 0 0 2.5 0 5-2.5 0-5 0 0-2.5 0-5z"/>
	<path class="s216" d="m295 235q2.5 0 5 0 0 2.5 0 5-2.5 0-5 0 0-2.5 0-5z"/>
	<path class="s217" d="m330 230q2.5 0 5 0 0 2.5 0 5-2.5 0-5 0 0-2.5 0-5z"/>
	<path class="s218" d="m325 230q2.5 0 5 0 0 2.5 0 5-2.5 0-5 0 0-2.5 0-5z"/>
	<path class="s185" d="m340 220q2.5 0 5 0 0 2.5 0 5-2.5 0-5 0 0-2.5 0-5z"/>
	<path class="s219" d="m330 220q2.5 0 5 0 0 2.5 0 5-2.5 0-5 0 0-2.5 0-5z"/>
	<path class="s220" d="m325 220q2.5 0 5 0 0 2.5 0 5-2.5 0-5 0 0-2.5 0-5z"/>
	<path class="s221" d="m295 220q2.5 0 5 0 0 2.5 0 5-2.5 0-5 0 0-2.5 0-5z"/>
	<path class="s219" d="m335 215q2.5 0 5 0 0 2.5 0 5-2.5 0-5 0 0-2.5 0-5z"/>
	<path class="s67" d="m300 215q2.5 0 5 0 0 2.5 0 5-2.5 0-5 0 0-2.5 0-5z"/>
	<path class="s222" d="m330 210q2.5 0 5 0 0 2.5 0 5-2.5 0-5 0 0-2.5 0-5z"/>
	<path class="s223" d="m305 210q2.5 0 5 0 0 2.5 0 5-2.5 0-5 0 0-2.5 0-5z"/>
</svg>