<?xml version="1.0" encoding="UTF-8" standalone="no" ?>
<!DOCTYPE svg PUBLIC "-//W3C//DTD SVG 1.1//EN" "http://www.w3.org/Graphics/SVG/1.1/DTD/svg11.dtd">
<svg xmlns="http://www.w3.org/2000/svg" xmlns:xlink="http://www.w3.org/1999/xlink" version="1.1" width="264" height="400" viewBox="0 0 264 400" xml:space="preserve">
<desc>Created with Fabric.js 3.6.6</desc>
<defs>
</defs>
<g transform="matrix(12.51 0 0 12.51 132.02 200.18)"  >
<path style="stroke: rgb(255,255,255); stroke-opacity: 0; stroke-width: 1; stroke-dasharray: none; stroke-linecap: butt; stroke-dashoffset: 0; stroke-linejoin: round; stroke-miterlimit: 4; fill: rgb(0,0,0); fill-rule: nonzero; opacity: 1;"  transform=" translate(-16, -16)" d="M 18.605 2.022 v 0 z M 18.605 2.022 l -2.256 11.856 l 8.174 0.027 l -11.127 16.072 l 2.257 -13.043 l -8.174 -0.029 z M 18.606 0.023 c -0.054 0 -0.108 0.002 -0.161 0.006 c -0.353 0.028 -0.587 0.147 -0.864 0.333 c -0.154 0.102 -0.295 0.228 -0.419 0.373 c -0.037 0.043 -0.071 0.088 -0.103 0.134 l -11.207 14.832 c -0.442 0.607 -0.508 1.407 -0.168 2.076 s 1.026 1.093 1.779 1.099 l 5.773 0.042 l -1.815 10.694 c -0.172 0.919 0.318 1.835 1.18 2.204 c 0.257 0.11 0.527 0.163 0.793 0.163 c 0.629 0 1.145 -0.294 1.533 -0.825 l 11.22 -16.072 c 0.442 -0.607 0.507 -1.408 0.168 -2.076 c -0.34 -0.669 -1.026 -1.093 -1.779 -1.098 l -5.773 -0.01 l 1.796 -9.402 c 0.038 -0.151 0.057 -0.308 0.057 -0.47 c 0 -1.082 -0.861 -1.964 -1.939 -1.999 c -0.024 -0.001 -0.047 -0.001 -0.071 -0.001 v 0 z" stroke-linecap="round" />
</g>
<g transform="matrix(1 0 0 1 110 166.45)"  >
<path style="stroke: rgb(0,0,0); stroke-width: 1; stroke-dasharray: none; stroke-linecap: round; stroke-dashoffset: 0; stroke-linejoin: round; stroke-miterlimit: 10; fill: none; fill-rule: nonzero; opacity: 1;"  transform=" translate(-298, -208)" d="M 286 187.499 Q 286 187.5 286 189.5 Q 286 191.5 286 193.5 Q 286 195.5 286 198 Q 286 200.5 286 201.5 Q 286 202.5 286 204 Q 286 205.5 286 206.5 Q 286 207.5 286 209 Q 286 210.5 286 212 Q 286 213.5 286.5 214.5 Q 287 215.5 287.5 216.5 Q 288 217.5 288.5 218.5 Q 289 219.5 290 219.5 Q 291 219.5 291.5 220 Q 292 220.5 293 221.5 Q 294 222.5 295 223 Q 296 223.5 297 224.5 Q 298 225.5 299 226 Q 300 226.5 301 227.5 Q 302 228.5 303.5 229 Q 305 229.5 306 229.5 Q 307 229.5 307.5 229.5 Q 308 229.5 308.5 229.5 Q 309 229.5 309.5 229.5 Q 310 229.5 310 228.5 Q 310 227.5 310 227 Q 310 226.5 310 225 Q 310 223.5 309 222.5 Q 308 221.5 307 220.5 Q 306 219.5 304.5 218 Q 303 216.5 301.5 214.5 Q 300 212.5 298 211 Q 296 209.5 293 206 Q 290 202.5 288.5 200 Q 287 197.5 286.5 195.5 Q 286 193.5 286 192 Q 286 190.5 286 189.5 Q 286 188.5 286 187.5 L 286 186.499" stroke-linecap="round" />
</g>
<g transform="matrix(1 0 0 1 95 163.95)"  >
<path style="stroke: rgb(0,0,0); stroke-width: 8; stroke-dasharray: none; stroke-linecap: round; stroke-dashoffset: 0; stroke-linejoin: round; stroke-miterlimit: 10; fill: none; fill-rule: nonzero; opacity: 1;"  transform=" translate(-283, -205.5)" d="M 282.992 205.5 L 283.008 205.5" stroke-linecap="round" />
</g>
<g transform="matrix(1 0 0 1 84 154.95)"  >
<path style="stroke: rgb(0,0,0); stroke-width: 15; stroke-dasharray: none; stroke-linecap: round; stroke-dashoffset: 0; stroke-linejoin: round; stroke-miterlimit: 10; fill: none; fill-rule: nonzero; opacity: 1;"  transform=" translate(-272, -196.5)" d="M 271.985 196.5 L 272.015 196.5" stroke-linecap="round" />
</g>
<g transform="matrix(1 0 0 1 109 135.95)"  >
<path style="stroke: rgb(0,0,0); stroke-width: 30; stroke-dasharray: none; stroke-linecap: round; stroke-dashoffset: 0; stroke-linejoin: round; stroke-miterlimit: 10; fill: none; fill-rule: nonzero; opacity: 1;"  transform=" translate(-297, -177.5)" d="M 296.97 177.5 L 297.03 177.5" stroke-linecap="round" />
</g>
<g transform="matrix(1 0 0 1 153.99 48.94)"  >
<path style="stroke: rgb(0,0,0); stroke-width: 30; stroke-dasharray: none; stroke-linecap: round; stroke-dashoffset: 0; stroke-linejoin: round; stroke-miterlimit: 10; fill: none; fill-rule: nonzero; opacity: 1;"  transform=" translate(-341.99, -90.48)" d="M 349 70.47 Q 349 70.5 349 71 Q 349 71.5 349 72.5 Q 349 73.5 348.5 75.5 Q 348 77.5 348 78.5 Q 348 79.5 348 80 Q 348 80.5 348 81 Q 348 81.5 347.5 82 Q 347 82.5 347 83 Q 347 83.5 347 84.5 Q 347 85.5 346 87 Q 345 88.5 345 89 Q 345 89.5 345 90.5 Q 345 91.5 344.5 91.5 Q 344 91.5 343.5 93 Q 343 94.5 342.5 95.5 Q 342 96.5 342 97 Q 342 97.5 342 98 Q 342 98.5 341.5 99.5 Q 341 100.5 340.5 101 Q 340 101.5 339.5 102 Q 339 102.5 339 103 Q 339 103.5 338.5 105 Q 338 106.5 337 108.5 Q 336 110.5 335.5 110.5 L 334.97 110.5" stroke-linecap="round" />
</g>
<g transform="matrix(1 0 0 1 164 18.95)"  >
<path style="stroke: rgb(0,0,0); stroke-width: 30; stroke-dasharray: none; stroke-linecap: round; stroke-dashoffset: 0; stroke-linejoin: round; stroke-miterlimit: 10; fill: none; fill-rule: nonzero; opacity: 1;"  transform=" translate(-352, -60.5)" d="M 351.97 60.5 L 352.03 60.5" stroke-linecap="round" />
</g>
<g transform="matrix(1 0 0 1 130.09 210.44)"  >
<path style="stroke: rgb(0,0,0); stroke-width: 30; stroke-dasharray: none; stroke-linecap: round; stroke-dashoffset: 0; stroke-linejoin: round; stroke-miterlimit: 10; fill: none; fill-rule: nonzero; opacity: 1;"  transform=" translate(-318.09, -251.98)" d="M 335 96.47 Q 335 96.5 335 98 Q 335 99.5 335 101 Q 335 102.5 334 103.5 Q 333 104.5 333 106 Q 333 107.5 332.5 109 Q 332 110.5 332 112.5 Q 332 114.5 331.5 116 Q 331 117.5 331 119 Q 331 120.5 331 121.5 Q 331 122.5 331 124 Q 331 125.5 331 128 Q 331 130.5 331 132 Q 331 133.5 331 135 Q 331 136.5 331 138 Q 331 139.5 330 141 Q 329 142.5 328.5 144 Q 328 145.5 327 148.5 Q 326 151.5 326 152.5 Q 326 153.5 324.5 156 Q 323 158.5 323 159.5 Q 323 160.5 323 164 Q 323 167.5 323 168.5 Q 323 169.5 323 171.5 Q 323 173.5 322.5 175.5 Q 322 177.5 321 179.5 Q 320 181.5 319.5 183.5 Q 319 185.5 319 187 Q 319 188.5 319 189 Q 319 189.5 319 188.5 Q 319 187.5 319 186 Q 319 184.5 319 181.5 Q 319 178.5 319 176.5 Q 319 174.5 319 171.5 Q 319 168.5 319 165.5 Q 319 162.5 319 160 Q 319 157.5 319 153.5 Q 319 149.5 320 146.5 Q 321 143.5 321 140.5 Q 321 137.5 322 135 Q 323 132.5 323 131.5 Q 323 130.5 323 128.5 Q 323 126.5 323.5 125 Q 324 123.5 324 122.5 Q 324 121.5 324 120 Q 324 118.5 324 118 Q 324 117.5 324 117 Q 324 116.5 323.5 116.5 Q 323 116.5 321 117.5 Q 319 118.5 318.5 119.5 Q 318 120.5 317.5 121 Q 317 121.5 316 122 Q 315 122.5 314.5 123.5 Q 314 124.5 313 125.5 Q 312 126.5 310.5 128 Q 309 129.5 308.5 131 Q 308 132.5 307.5 133 Q 307 133.5 306.5 135 Q 306 136.5 305.5 137.5 Q 305 138.5 304.5 139.5 Q 304 140.5 303.5 141.5 Q 303 142.5 301 145 Q 299 147.5 298.5 148 Q 298 148.5 297 149.5 Q 296 150.5 295 151.5 Q 294 152.5 293 154 Q 292 155.5 290.5 157.5 Q 289 159.5 288.5 160 Q 288 160.5 287.5 161 Q 287 161.5 287 162.5 Q 287 163.5 286 164 Q 285 164.5 284.5 165 Q 284 165.5 283 167.5 Q 282 169.5 281.5 170 Q 281 170.5 280.5 172 Q 280 173.5 279 174 Q 278 174.5 277.5 175.5 Q 277 176.5 276 177 Q 275 177.5 274.5 178.5 Q 274 179.5 273.5 181 Q 273 182.5 272.5 183.5 Q 272 184.5 271 185 Q 270 185.5 269.5 186.5 Q 269 187.5 268 188.5 Q 267 189.5 267 190 Q 267 190.5 266.5 192 Q 266 193.5 265 195 Q 264 196.5 263 198.5 Q 262 200.5 260.5 202 Q 259 203.5 258.5 205 Q 258 206.5 256.5 209 Q 255 211.5 254.5 212.5 Q 254 213.5 254 214 Q 254 214.5 253.5 214.5 Q 253 214.5 252.5 215 Q 252 215.5 251.5 216 Q 251 216.5 251 217 Q 251 217.5 250 218.5 Q 249 219.5 249 220 Q 249 220.5 248.5 221.5 Q 248 222.5 246.5 223.5 Q 245 224.5 244.5 224.5 Q 244 224.5 243.5 224.5 Q 243 224.5 242.5 225 Q 242 225.5 242 226 Q 242 226.5 241.5 227.5 Q 241 228.5 240.5 228.5 Q 240 228.5 239.5 229 Q 239 229.5 239 230 Q 239 230.5 238.5 231.5 Q 238 232.5 237 233 Q 236 233.5 236 234.5 Q 236 235.5 236 236 Q 236 236.5 236 237 Q 236 237.5 235.5 237.5 Q 235 237.5 234.5 238.5 Q 234 239.5 234 240.5 Q 234 241.5 233.5 241.5 Q 233 241.5 232.5 242.5 Q 232 243.5 231 244 Q 230 244.5 230 245.5 Q 230 246.5 229.5 247 Q 229 247.5 228.5 248 Q 228 248.5 227.5 249 Q 227 249.5 226.5 249.5 Q 226 249.5 225.5 249.5 Q 225 249.5 224.5 249.5 Q 224 249.5 223 249.5 Q 222 249.5 222.5 249.5 Q 223 249.5 223.5 249.5 Q 224 249.5 225.5 248.5 Q 227 247.5 228.5 247.5 Q 230 247.5 231 247.5 Q 232 247.5 233.5 247.5 Q 235 247.5 236 246.5 Q 237 245.5 238.5 245.5 Q 240 245.5 241.5 245.5 Q 243 245.5 244 245.5 Q 245 245.5 246.5 245.5 Q 248 245.5 249.5 245.5 Q 251 245.5 251.5 245.5 Q 252 245.5 252.5 245.5 Q 253 245.5 253.5 245.5 Q 254 245.5 256.5 245.5 Q 259 245.5 259.5 245.5 Q 260 245.5 260.5 245.5 Q 261 245.5 262 245.5 Q 263 245.5 264 245.5 Q 265 245.5 267 245.5 Q 269 245.5 269.5 246 Q 270 246.5 271.5 246.5 Q 273 246.5 274 246.5 Q 275 246.5 277 247 Q 279 247.5 280 247.5 Q 281 247.5 282 247.5 Q 283 247.5 284.5 247.5 Q 286 247.5 286.5 248.5 Q 287 249.5 288.5 249.5 Q 290 249.5 291 249.5 Q 292 249.5 294 249.5 Q 296 249.5 297.5 249.5 Q 299 249.5 300 249.5 Q 301 249.5 302 249.5 Q 303 249.5 304.5 250 Q 306 250.5 306.5 250.5 Q 307 250.5 308 250.5 Q 309 250.5 309.5 250.5 Q 310 250.5 311 250.5 Q 312 250.5 312.5 250.5 Q 313 250.5 313.5 251 Q 314 251.5 314.5 251.5 Q 315 251.5 316.5 252 Q 318 252.5 318 253 Q 318 253.5 318.5 254 Q 319 254.5 319.5 254.5 Q 320 254.5 320 255.5 Q 320 256.5 320 257 Q 320 257.5 320 258.5 Q 320 259.5 320 260 Q 320 260.5 320 261.5 Q 320 262.5 319 263 Q 318 263.5 318 264 Q 318 264.5 318 265 Q 318 265.5 317.5 266.5 Q 317 267.5 317 268 Q 317 268.5 317 269 Q 317 269.5 317 270 Q 317 270.5 317 271.5 Q 317 272.5 317 273 Q 317 273.5 317 274 Q 317 274.5 317 275.5 Q 317 276.5 317 277 Q 317 277.5 317 278 Q 317 278.5 317 279 Q 317 279.5 317 280.5 Q 317 281.5 317 282 Q 317 282.5 317 283 Q 317 283.5 317 284 Q 317 284.5 317 285.5 Q 317 286.5 317 287 Q 317 287.5 317 288 Q 317 288.5 317 289.5 Q 317 290.5 317 291 Q 317 291.5 317 292 Q 317 292.5 317 293 Q 317 293.5 317 295 Q 317 296.5 317 297 Q 317 297.5 317 299.5 Q 317 301.5 316.5 301.5 Q 316 301.5 316 303 Q 316 304.5 316 305 Q 316 305.5 316 306 Q 316 306.5 316 307.5 Q 316 308.5 315.5 309.5 Q 315 310.5 315 311.5 Q 315 312.5 315 313 Q 315 313.5 315 315 Q 315 316.5 314 317.5 Q 313 318.5 313 319.5 Q 313 320.5 312.5 322 Q 312 323.5 312 324 Q 312 324.5 311.5 325.5 Q 311 326.5 311 327.5 Q 311 328.5 311 329 Q 311 329.5 310.5 331 Q 310 332.5 309.5 334 Q 309 335.5 309 336 Q 309 336.5 308.5 338 Q 308 339.5 308 340 Q 308 340.5 308 341 Q 308 341.5 308 343 Q 308 344.5 308 345 Q 308 345.5 308 346 Q 308 346.5 307.5 348 Q 307 349.5 307 350 Q 307 350.5 306.5 351 Q 306 351.5 305 352.5 Q 304 353.5 304 354 Q 304 354.5 304 355 Q 304 355.5 303.5 357 Q 303 358.5 303 359 Q 303 359.5 303 360 Q 303 360.5 303 361.5 Q 303 362.5 302 363 Q 301 363.5 301 364 Q 301 364.5 301 365.5 Q 301 366.5 300.5 367 Q 300 367.5 300 368 Q 300 368.5 300 369.5 Q 300 370.5 299.5 371.5 Q 299 372.5 299 373.5 Q 299 374.5 299 375 Q 299 375.5 299 376 Q 299 376.5 299 377.5 Q 299 378.5 299 379.5 Q 299 380.5 298 381 Q 297 381.5 297 382 Q 297 382.5 297 383 Q 297 383.5 297 384 Q 297 384.5 296.5 385 Q 296 385.5 295.5 386.5 Q 295 387.5 295 388 Q 295 388.5 295 389.5 Q 295 390.5 294.5 391 Q 294 391.5 294 392 Q 294 392.5 293.5 393 Q 293 393.5 292.5 394.5 Q 292 395.5 292 396.5 Q 292 397.5 292 398 Q 292 398.5 291 399.5 Q 290 400.5 290 401 Q 290 401.5 290 402 Q 290 402.5 290 403 Q 290 403.5 290 404.5 Q 290 405.5 290 406 Q 290 406.5 290 407 Q 290 407.5 290.5 407.5 Q 291 407.5 291.5 406.5 Q 292 405.5 292 405 Q 292 404.5 292.5 403.5 Q 293 402.5 294 401.5 Q 295 400.5 295.5 399 Q 296 397.5 297.5 396.5 Q 299 395.5 299.5 394.5 Q 300 393.5 300.5 393 Q 301 392.5 302.5 390.5 Q 304 388.5 304.5 387.5 Q 305 386.5 305.5 386 Q 306 385.5 306.5 384.5 Q 307 383.5 307.5 383.5 Q 308 383.5 309 382 Q 310 380.5 310 380 Q 310 379.5 310.5 378.5 Q 311 377.5 311.5 377 Q 312 376.5 312.5 376 Q 313 375.5 313 374.5 Q 313 373.5 314.5 371.5 Q 316 369.5 316 369 Q 316 368.5 316 367.5 Q 316 366.5 316.5 366 Q 317 365.5 318 364.5 Q 319 363.5 319 363 Q 319 362.5 319 362 Q 319 361.5 319.5 360.5 Q 320 359.5 320.5 358.5 Q 321 357.5 321.5 357.5 Q 322 357.5 322.5 356.5 Q 323 355.5 323.5 354.5 Q 324 353.5 324 352.5 Q 324 351.5 324.5 351 Q 325 350.5 326 349.5 Q 327 348.5 327 347.5 Q 327 346.5 327.5 346 Q 328 345.5 328 345 Q 328 344.5 328 344 Q 328 343.5 328.5 342.5 Q 329 341.5 330 341 Q 331 340.5 331 340 Q 331 339.5 331 338 Q 331 336.5 331.5 336.5 Q 332 336.5 332.5 336 Q 333 335.5 334 334.5 Q 335 333.5 335 333 Q 335 332.5 335 331.5 Q 335 330.5 335.5 330 Q 336 329.5 336.5 329 Q 337 328.5 338 327 Q 339 325.5 339.5 324.5 Q 340 323.5 341 321.5 Q 342 319.5 342.5 317.5 Q 343 315.5 343.5 314.5 Q 344 313.5 344.5 312 Q 345 310.5 346 309.5 Q 347 308.5 347.5 308 Q 348 307.5 349.5 304.5 Q 351 301.5 352 299.5 Q 353 297.5 353.5 296.5 Q 354 295.5 354 295 Q 354 294.5 355 294 Q 356 293.5 356 292.5 Q 356 291.5 356.5 291 Q 357 290.5 357.5 290.5 Q 358 290.5 359.5 289 Q 361 287.5 361.5 287 Q 362 286.5 363 284.5 Q 364 282.5 364.5 282 Q 365 281.5 366.5 280 Q 368 278.5 368.5 278 Q 369 277.5 369.5 276.5 Q 370 275.5 370.5 275 Q 371 274.5 372 273 Q 373 271.5 374 270 Q 375 268.5 375.5 267.5 Q 376 266.5 376.5 266 Q 377 265.5 377.5 265 Q 378 264.5 378 264 Q 378 263.5 378.5 263 Q 379 262.5 379.5 261.5 Q 380 260.5 380 260 Q 380 259.5 380.5 259.5 Q 381 259.5 381.5 259 Q 382 258.5 382.5 258 Q 383 257.5 384 256 Q 385 254.5 385 254 Q 385 253.5 386 253 Q 387 252.5 387 251.5 Q 387 250.5 387.5 249.5 Q 388 248.5 389.5 248 Q 391 247.5 391.5 246.5 Q 392 245.5 393 244.5 Q 394 243.5 394.5 243 Q 395 242.5 395.5 241.5 Q 396 240.5 396.5 240.5 Q 397 240.5 397.5 240 Q 398 239.5 398.5 239 Q 399 238.5 400 237.5 Q 401 236.5 401.5 236.5 Q 402 236.5 402.5 235.5 Q 403 234.5 403.5 234 Q 404 233.5 404.5 233 Q 405 232.5 405.5 231.5 Q 406 230.5 406.5 230 Q 407 229.5 408 228.5 Q 409 227.5 409 227 Q 409 226.5 409.5 226 Q 410 225.5 410 225 Q 410 224.5 410 223.5 Q 410 222.5 410.5 222 Q 411 221.5 411.5 221 Q 412 220.5 412.5 220.5 Q 413 220.5 413.5 220.5 Q 414 220.5 414 220 Q 414 219.5 413 219.5 Q 412 219.5 411.5 219.5 Q 411 219.5 410.5 219.5 Q 410 219.5 409.5 219.5 Q 409 219.5 408 219.5 Q 407 219.5 406.5 219.5 Q 406 219.5 404 219.5 Q 402 219.5 400.5 219.5 Q 399 219.5 397.5 219.5 Q 396 219.5 395.5 219.5 Q 395 219.5 394.5 219.5 Q 394 219.5 393 219.5 Q 392 219.5 391 219.5 Q 390 219.5 388.5 219.5 Q 387 219.5 386.5 219.5 Q 386 219.5 384.5 220 Q 383 220.5 382 220.5 Q 381 220.5 379.5 220.5 Q 378 220.5 376.5 221.5 Q 375 222.5 373 223 Q 371 223.5 370 223.5 Q 369 223.5 368.5 224 Q 368 224.5 367.5 224.5 Q 367 224.5 365.5 224.5 Q 364 224.5 362.5 224.5 Q 361 224.5 359 224.5 Q 357 224.5 356.5 224.5 Q 356 224.5 355.5 224.5 Q 355 224.5 353.5 224.5 Q 352 224.5 350.5 224.5 Q 349 224.5 348 224.5 Q 347 224.5 345 224.5 Q 343 224.5 342 224.5 Q 341 224.5 340.5 224.5 Q 340 224.5 339.5 224.5 Q 339 224.5 338.5 224.5 Q 338 224.5 337 224.5 Q 336 224.5 335 224.5 Q 334 224.5 333.5 224.5 Q 333 224.5 331 224.5 Q 329 224.5 325.5 224 Q 322 223.5 319.5 223 Q 317 222.5 314.5 222 Q 312 221.5 310 221.5 Q 308 221.5 306.5 220.5 Q 305 219.5 304 219.5 Q 303 219.5 300.5 219.5 Q 298 219.5 296 219 Q 294 218.5 292 218.5 Q 290 218.5 289 218 Q 288 217.5 287.5 217.5 Q 287 217.5 286 217.5 Q 285 217.5 283.5 217.5 Q 282 217.5 280 217.5 Q 278 217.5 276.5 217.5 Q 275 217.5 274.5 217.5 Q 274 217.5 272.5 217.5 Q 271 217.5 270 218 Q 269 218.5 268.5 218.5 Q 268 218.5 267.5 218.5 Q 267 218.5 266.5 218.5 Q 266 218.5 265.5 219.5 Q 265 220.5 264 220.5 Q 263 220.5 262.5 220.5 Q 262 220.5 260.5 221 Q 259 221.5 258 222 Q 257 222.5 256.5 223.5 Q 256 224.5 255 224.5 Q 254 224.5 253.5 225 Q 253 225.5 252.5 226 Q 252 226.5 252.5 226.5 Q 253 226.5 253.5 226.5 Q 254 226.5 255 226.5 Q 256 226.5 256.5 226.5 Q 257 226.5 257.5 226.5 Q 258 226.5 259.5 226.5 Q 261 226.5 262 226.5 Q 263 226.5 263.5 226.5 Q 264 226.5 264.5 226 Q 265 225.5 265.5 224.5 Q 266 223.5 267.5 222 Q 269 220.5 270.5 217 Q 272 213.5 273.5 211 Q 275 208.5 276 206.5 Q 277 204.5 277.5 203 Q 278 201.5 279 200 Q 280 198.5 280.5 197 Q 281 195.5 281.5 194 Q 282 192.5 282.5 191.5 Q 283 190.5 284 190 Q 285 189.5 285 188.5 Q 285 187.5 285.5 186.5 Q 286 185.5 287 185 Q 288 184.5 289 183.5 Q 290 182.5 291 182 Q 292 181.5 293 181 Q 294 180.5 294.5 181.5 Q 295 182.5 295 184 Q 295 185.5 295 187 Q 295 188.5 294 192 Q 293 195.5 292 199.5 Q 291 203.5 290 207 Q 289 210.5 288.5 212 Q 288 213.5 288 214.5 Q 288 215.5 288 216.5 Q 288 217.5 288 218 Q 288 218.5 288 219 Q 288 219.5 288 220.5 Q 288 221.5 288 222 Q 288 222.5 288 223 Q 288 223.5 288 224 Q 288 224.5 288 225 Q 288 225.5 288.5 226 Q 289 226.5 289.5 227.5 Q 290 228.5 290.5 228.5 Q 291 228.5 292 228.5 Q 293 228.5 293.5 228.5 Q 294 228.5 294.5 228.5 Q 295 228.5 295.5 228.5 Q 296 228.5 297 228.5 Q 298 228.5 298.5 228.5 Q 299 228.5 301 227.5 Q 303 226.5 303.5 224.5 Q 304 222.5 305.5 219 Q 307 215.5 309 211 Q 311 206.5 312.5 204 Q 314 201.5 314.5 199.5 Q 315 197.5 316 195.5 Q 317 193.5 317 192.5 Q 317 191.5 317.5 191 Q 318 190.5 318 190 Q 318 189.5 318.5 189.5 Q 319 189.5 319 192 Q 319 194.5 319 198 Q 319 201.5 319 203.5 Q 319 205.5 319.5 208.5 Q 320 211.5 320.5 213 Q 321 214.5 321.5 217.5 Q 322 220.5 322 222 Q 322 223.5 322.5 224.5 Q 323 225.5 324 227 Q 325 228.5 325 230 Q 325 231.5 325.5 232 Q 326 232.5 326 233 Q 326 233.5 326 234.5 Q 326 235.5 326.5 236 Q 327 236.5 327 237 Q 327 237.5 328 238 Q 329 238.5 329 239.5 Q 329 240.5 329 240 Q 329 239.5 329 239 Q 329 238.5 329 237 Q 329 235.5 329 233.5 Q 329 231.5 329 230.5 Q 329 229.5 329 229 Q 329 228.5 328 228.5 Q 327 228.5 326.5 230.5 Q 326 232.5 324 236 Q 322 239.5 321 242 Q 320 244.5 319 247.5 Q 318 250.5 318 251.5 Q 318 252.5 318 254 Q 318 255.5 318 257 Q 318 258.5 318.5 259 Q 319 259.5 321 260.5 Q 323 261.5 323.5 261.5 Q 324 261.5 325.5 261.5 Q 327 261.5 327.5 261.5 Q 328 261.5 329 261.5 Q 330 261.5 331 262 Q 332 262.5 332.5 263 Q 333 263.5 333 264.5 Q 333 265.5 333.5 263.5 Q 334 261.5 334.5 260.5 Q 335 259.5 335 257 Q 335 254.5 335.5 251.5 Q 336 248.5 336 245.5 Q 336 242.5 336 240.5 Q 336 238.5 336 238 Q 336 237.5 336 240 Q 336 242.5 336 248 Q 336 253.5 336 259 Q 336 264.5 336 268.5 Q 336 272.5 336 274.5 Q 336 276.5 336 279.5 Q 336 282.5 336 284 Q 336 285.5 336 286.5 Q 336 287.5 336 289 Q 336 290.5 336 291 Q 336 291.5 335 293 Q 334 294.5 334 296.5 Q 334 298.5 334 301 Q 334 303.5 334 304 Q 334 304.5 334 305 Q 334 305.5 334 304 Q 334 302.5 334.5 300 Q 335 297.5 336 294.5 Q 337 291.5 337.5 287 Q 338 282.5 340 278 Q 342 273.5 343 269 Q 344 264.5 345 261.5 Q 346 258.5 346.5 255.5 Q 347 252.5 348 249.5 Q 349 246.5 349 246 Q 349 245.5 349 245 Q 349 244.5 350 244.5 Q 351 244.5 351.5 244.5 Q 352 244.5 354 243.5 Q 356 242.5 356.5 242 Q 357 241.5 359 241.5 Q 361 241.5 361 241 Q 361 240.5 362 240.5 Q 363 240.5 364 240.5 Q 365 240.5 365.5 240 Q 366 239.5 368 239.5 Q 370 239.5 372 238.5 Q 374 237.5 375.5 237.5 Q 377 237.5 378 237.5 Q 379 237.5 380.5 237.5 Q 382 237.5 383 237.5 Q 384 237.5 385 237.5 Q 386 237.5 386.5 237.5 Q 387 237.5 387.5 237.5 Q 388 237.5 388.5 237.5 Q 389 237.5 390.5 238 Q 392 238.5 392.5 238.5 Q 393 238.5 393 240 Q 393 241.5 390.5 243.5 Q 388 245.5 386 246 Q 384 246.5 381.5 247.5 Q 379 248.5 377.5 249 Q 376 249.5 375.5 249.5 Q 375 249.5 374.5 249.5 Q 374 249.5 372 251 Q 370 252.5 368 254 Q 366 255.5 364.5 257 Q 363 258.5 361.5 260.5 Q 360 262.5 359.5 262.5 Q 359 262.5 361 261.5 Q 363 260.5 364 259.5 Q 365 258.5 368.5 255 Q 372 251.5 373.5 251 Q 375 250.5 375.5 249.5 Q 376 248.5 376.5 248.5 Q 377 248.5 378 248 Q 379 247.5 379 248.5 Q 379 249.5 378 252.5 Q 377 255.5 375.5 256.5 Q 374 257.5 372.5 260 Q 371 262.5 369 264.5 Q 367 266.5 365.5 269.5 Q 364 272.5 362.5 275 Q 361 277.5 360 278 Q 359 278.5 359.5 277.5 Q 360 276.5 361 274.5 Q 362 272.5 362.5 270 Q 363 267.5 363.5 265.5 Q 364 263.5 365 263 Q 366 262.5 366 261 Q 366 259.5 366 258.5 Q 366 257.5 366.5 257 Q 367 256.5 365.5 256.5 Q 364 256.5 363.5 256.5 Q 363 256.5 361 257 Q 359 257.5 358 258.5 Q 357 259.5 356.5 260.5 L 355.97 261.53" stroke-linecap="round" />
</g>
<g transform="matrix(1 0 0 1 74.5 189.47)"  >
<path style="stroke: rgb(0,0,0); stroke-width: 30; stroke-dasharray: none; stroke-linecap: round; stroke-dashoffset: 0; stroke-linejoin: round; stroke-miterlimit: 10; fill: none; fill-rule: nonzero; opacity: 1;"  transform=" translate(-262.5, -231.01)" d="M 273.03 225.5 Q 273 225.5 271.5 225.5 Q 270 225.5 268.5 225.5 Q 267 225.5 266.5 225.5 Q 266 225.5 264 227 Q 262 228.5 260 230.5 Q 258 232.5 256.5 234 Q 255 235.5 253.5 236 L 251.97 236.53" stroke-linecap="round" />
</g>
</svg>